<?xml version="1.0" encoding="UTF-8"?>
<svg id="Layer_1" data-name="Layer 1" xmlns="http://www.w3.org/2000/svg" viewBox="0 0 190.05 200">
  <defs>
    <style>
      .cls-1 {
        fill: #111;
      }

      .cls-2 {
        fill: #499872;
      }

      .cls-3 {
        fill: #3d7f5e;
      }
    </style>
  </defs>
  <path class="cls-2" d="M181.81,15.89c0-8.28-6.72-15-15-15H58.95c-.59,0-1.17.04-1.74.11-5.78-.69-11.69,2.03-14.79,7.39L9.63,65.19c-4.14,7.17-1.68,16.35,5.49,20.49l7.93,4.58-11.88,20.58c-4.14,7.17-1.68,16.35,5.49,20.49l109.22,63.06c7.17,4.14,16.35,1.68,20.49-5.49l33.42-57.89c1.59-2.76,2.2-5.81,1.95-8.77.03-.42.06-.84.06-1.26V15.89Z"/>
  <rect class="cls-3" x="6.94" y="59.48" width="139.63" height="139.63" rx="15" ry="15"/>
  <path class="cls-1" d="M73.42,155.95h17.77c1.37,0,2.55.48,3.55,1.44,1,.96,1.5,2.12,1.5,3.49s-.5,2.53-1.49,3.49c-1,.96-2.18,1.44-3.54,1.44h-18.4c-2.34,0-4.77-.74-7.27-2.23-2.5-1.48-4.24-3.14-5.21-4.98l-11.37-21.97c-1.52-3.16-2.29-6.41-2.29-9.73,0-3.67.72-6.86,2.17-9.55l11.48-21.74c1.09-2.03,2.79-3.82,5.1-5.36,2.3-1.54,4.53-2.31,6.68-2.31h19.45c1.37,0,2.53.49,3.49,1.46.96.98,1.44,2.13,1.44,3.46s-.48,2.55-1.43,3.54c-.96,1-2.12,1.49-3.48,1.49h-18.74c-1.56,0-2.83.92-3.81,2.76l-10.92,20.38c-.86,1.6-1.29,3.5-1.28,5.69,0,2.31.46,4.34,1.4,6.1l10.42,20.04c.98,2.07,2.58,3.1,4.81,3.1Z"/>
</svg>